<svg xmlns="http://www.w3.org/2000/svg" width="512" height="512" viewBox="0 0 512 512" role="img" aria-labelledby="title"><title id="title">Evermore botanical E</title><defs><linearGradient id="bg" x1="0" y1="0" x2="1" y2="1"><stop stop-color="#07522E"/><stop offset="1" stop-color="#013D1E"/></linearGradient></defs><rect width="512" height="512" rx="112" fill="url(#bg)"/><g transform="translate(33 39) scale(1.42)"><path fill="#FFF8ED" fill-rule="evenodd" d="M243,196 239,196 234,207 218,224 196,237 172,243 153,243 145,241 140,238 132,228 129,215 130,152 145,144 169,136 186,133 210,134 199,127 186,123 160,123 133,131 89,154 58,168 40,180 28,192 18,209 15,220 16,237 23,252 32,261 43,267 51,269 71,269 113,260 143,256 219,252 229,249 234,245 237,240 241,223ZM227,40 221,36 205,34 175,35 110,41 79,46 68,50 66,52 66,55 80,56 86,62 89,68 90,142 91,143 129,124 130,70 134,59 142,51 158,46 177,46 189,49 197,53 207,63 211,71 214,88 218,88 228,47Z"/><path fill="#85CE32" d="M212,143 199,149 176,164 174,163 183,154 194,146 178,148 164,155 156,163 151,171 147,182 145,194 156,187 174,183 183,179 193,169 201,152ZM317,33 302,43 275,52 260,61 251,70 245,79 240,90 234,112 229,121 220,130 232,122 277,76 279,77 244,120 256,118 271,113 291,100 304,84 311,69 315,55Z"/></g></svg>
